<svg t="1676440115107" class="icon" viewBox="0 0 1024 1024" version="1.1" xmlns="http://www.w3.org/2000/svg" p-id="20748" width="200" height="200"><path d="M827.733333 313.173333L710.826667 196.266667A85.333333 85.333333 0 0 0 597.333333 193.28l-384 384a85.333333 85.333333 0 0 0-24.32 51.626667L170.666667 806.826667a42.666667 42.666667 0 0 0 12.373333 34.133333A42.666667 42.666667 0 0 0 213.333333 853.333333h3.84l177.92-16.213333a85.333333 85.333333 0 0 0 51.626667-24.32l384-384a81.92 81.92 0 0 0-2.986667-115.626667zM682.666667 455.68L568.32 341.333333l83.2-85.333333L768 372.48z" fill="#11AA66" p-id="20749"></path></svg>